<?xml version="1.0" encoding="UTF-8"?><!DOCTYPE svg PUBLIC "-//W3C//DTD SVG 1.1//EN" "http://www.w3.org/Graphics/SVG/1.1/DTD/svg11.dtd"><svg xmlns="http://www.w3.org/2000/svg"><symbol id="icon-email" viewBox="0 0 612 612">
    <path d="M306 612c-28.152 0-55.284-3.672-81.396-11.016-26.112-7.347-50.49-17.646-73.134-30.906s-43.248-29.172-61.812-47.736a305.032 305.032 0 0 1-47.736-61.812c-13.26-22.646-23.562-47.022-30.906-73.135C3.672 361.284 0 334.152 0 306s3.672-55.284 11.016-81.396 17.646-50.49 30.906-73.134 29.172-43.248 47.736-61.812 39.168-34.476 61.812-47.736 47.022-23.562 73.134-30.906S277.848 0 306 0c42.024 0 81.702 8.058 119.034 24.174s69.768 37.944 97.308 65.484 49.368 59.976 65.484 97.308S612 263.976 612 306c0 28.152-3.672 55.284-11.016 81.396-7.347 26.109-17.646 50.487-30.906 73.134a305.087 305.087 0 0 1-47.736 61.812 304.924 304.924 0 0 1-61.812 47.736c-22.646 13.26-47.022 23.562-73.136 30.906C361.284 608.328 334.152 612 306 612zm147.492-432.072H163.404c-2.856 0-5.304.918-7.344 2.754s-3.06 4.386-3.06 7.65v32.436c0 1.632.612 2.448 1.836 2.448l152.388 86.904 1.227.612c.813 0 1.428-.204 1.836-.612l147.492-86.904c.813-.408 1.428-.612 1.836-.612.405 0 1.02-.204 1.836-.612 1.632 0 2.448-.816 2.448-2.448v-31.212c0-3.264-1.021-5.814-3.063-7.65s-4.488-2.754-7.344-2.754zm-208.08 130.356c.408-.408.612-1.021.612-1.836 0-1.227-.408-1.836-1.224-1.836l-87.516-50.185c-1.224-.408-2.244-.408-3.06 0-.816 0-1.224.612-1.224 1.836v131.58c0 1.227.612 2.04 1.836 2.448h1.224c.816 0 1.224-.204 1.224-.612l88.128-81.395zm106.488 9.792c-.408-1.227-1.431-1.428-3.063-.612l-33.66 19.584c-4.08 2.448-8.361 2.448-12.852 0l-29.376-16.521c-1.224-.816-2.244-.816-3.06 0l-111.996 104.04c-.408.405-.612 1.224-.612 2.445 0 .408.408 1.021 1.224 1.836 2.448.816 4.08 1.227 4.896 1.227H450.43c.816 0 1.635-.408 2.448-1.227 0-1.632-.204-2.649-.612-3.06L351.9 320.076zm110.16-66.096h-2.445l-83.232 49.572c-.813 0-1.224.612-1.224 1.836-.408.408-.204 1.02.609 1.833L459 397.188c.816.816 1.428 1.227 1.836 1.227h1.224c1.227-1.227 1.839-2.04 1.839-2.448V256.429c-.003-.817-.615-1.633-1.839-2.449z"/>
</symbol><symbol id="icon-facebook" viewBox="0 0 10 19">
    <title>
        facebook
    </title>
    <path d="M9.766.157v2.946H8.014c-.64 0-1.071.134-1.295.402-.223.268-.335.67-.335 1.205v2.11h3.27l-.435 3.303H6.384v8.471H2.97v-8.47H.123V6.82H2.97V4.387c0-1.384.387-2.457 1.161-3.22C4.904.404 5.934.023 7.222.023c1.093 0 1.941.045 2.544.134z" fill-rule="evenodd"/>
</symbol><symbol id="icon-phone" viewBox="0 0 485.213 485.212">
    <path d="M242.607 0C108.629 0 .001 108.628.001 242.606c0 133.976 108.628 242.606 242.606 242.606s242.604-108.631 242.604-242.606C485.212 108.628 376.585 0 242.607 0zm128.112 353.989l-19.425 19.429c-3.468 3.463-13.623 5.624-13.949 5.624-61.452.536-120.621-23.602-164.095-67.08-43.593-43.618-67.759-102.998-67.11-164.657 0-.028 2.224-9.892 5.689-13.324l19.424-19.427c7.108-7.141 20.762-10.368 30.327-7.168l4.086 1.363c9.537 3.197 19.55 13.742 22.185 23.457l9.771 35.862c2.635 9.743-.919 23.604-8.025 30.712l-12.97 12.972c12.734 47.142 49.723 84.138 96.873 96.903l12.965-12.975c7.141-7.141 20.997-10.692 30.719-8.061l35.857 9.806c9.717 2.67 20.26 12.62 23.456 22.154l1.363 4.145c3.168 9.538-.034 23.189-7.141 30.265z"/>
</symbol><symbol id="icon-site" viewBox="0 0 490 490">
    <path d="M245 490c135.31 0 245-109.689 245-245C490 109.69 380.31 0 245 0S0 109.69 0 245c0 135.311 109.69 245 245 245zm0-459.375c118.206 0 214.375 96.169 214.375 214.375 0 118.207-96.169 214.375-214.375 214.375S30.625 363.207 30.625 245c0-118.206 96.169-214.375 214.375-214.375z"/>
    <path d="M128.297 222.899l17.78 66.723h19.111l21.683-89.244h-18.139l-13.698 62.342-15.656-62.342h-21.429l-16.314 61.295-13.458-61.295H69.724l21.309 89.244h19.544z"/>
    <path d="M228.262 289.622l17.72-66.723 17.78 66.723h19.111l21.683-89.244h-18.139l-13.698 62.342-15.656-62.342h-21.429l-16.314 61.295-13.458-61.295h-18.453l21.309 89.244z"/>
    <path d="M345.947 289.622l17.72-66.723 17.78 66.723h19.111l21.683-89.244h-18.139l-13.698 62.342-15.656-62.342h-21.429l-16.314 61.295-13.458-61.295h-18.453l21.309 89.244z"/>
</symbol><symbol id="icon-skype" viewBox="0 0 508.52 508.52">
    <g>
        <path d="M254.26 0C113.845 0 0 113.845 0 254.26s113.845 254.26 254.26 254.26 254.26-113.845 254.26-254.26C508.52 113.813 394.675 0 254.26 0zm68.936 404.591c-16.209 0-31.306-4.64-44.178-12.586-8.263 1.494-16.749 2.352-25.49 2.352-77.39 0-140.097-62.389-140.097-139.366 0-7.469.604-14.811 1.748-21.962-8.549-13.094-13.476-28.731-13.476-45.513 0-46.18 37.408-83.588 83.588-83.62 16.845 0 32.482 4.99 45.64 13.571a138.57 138.57 0 0 1 22.566-1.843c77.359 0 140.097 62.421 140.097 139.366 0 6.42-.477 12.713-1.303 18.911 9.185 13.444 14.525 29.653 14.525 47.07 0 46.212-37.408 83.62-83.62 83.62z"/>
        <path d="M235.953 228.166c-40.491-9.853-18.338-44.495 14.461-43.987 31.846.509 48.055 34.134 62.453 32.386 14.461-1.748 26.761-23.392 4.036-42.779-19.61-16.781-44.495-26.03-82.698-22.566-29.939 2.701-58.384 21.993-61.88 59.56-3.464 37.599 41.095 56.7 76.373 61.944 24.727 3.623 58.416 15.605 38.139 38.743-18.561 21.262-53.776 8.105-63.025 2.32-9.249-5.848-19.673-26.634-37.027-25.521-17.385 1.176-25.934 23.996-4.608 44.019 19.101 17.894 39.919 27.778 84.446 25.426 44.559-2.32 84.478-41.635 68.841-78.693-15.637-36.994-59.02-41.031-99.511-50.852z"/>
    </g>
</symbol></svg>